<?xml version="1.0" standalone="no"?>
<!DOCTYPE svg PUBLIC "-//W3C//DTD SVG 20010904//EN"
 "http://www.w3.org/TR/2001/REC-SVG-20010904/DTD/svg10.dtd">
<svg version="1.0" xmlns="http://www.w3.org/2000/svg"
 width="1213.000000pt" height="1280.000000pt" viewBox="0 0 1213.000000 1280.000000"
 preserveAspectRatio="xMidYMid meet">
<metadata>
Created by potrace 1.15, written by Peter Selinger 2001-2017
</metadata>
<g transform="translate(0.000000,1280.000000) scale(0.100000,-0.100000)"
fill="#000000" stroke="none">
<path d="M6883 12785 c-121 -34 -216 -103 -283 -207 -54 -82 -73 -164 -68
-281 3 -86 8 -102 43 -173 92 -188 291 -295 490 -264 245 37 420 254 402 499
-13 184 -124 336 -299 408 -79 32 -207 40 -285 18z"/>
<path d="M4703 12149 c-79 -39 -123 -112 -123 -201 0 -62 25 -122 66 -160 41
-37 772 -454 820 -467 29 -7 119 -4 342 12 207 16 301 19 298 12 -2 -6 -144
-195 -316 -421 -172 -225 -320 -425 -330 -444 -38 -75 -52 -148 -48 -249 l4
-96 188 -387 188 -388 -98 -116 c-429 -508 -517 -614 -537 -654 -18 -36 -22
-62 -22 -130 0 -97 17 -138 81 -204 96 -99 267 -112 376 -29 48 36 792 921
820 976 17 32 22 59 23 117 l0 75 -113 229 c-61 126 -110 231 -108 233 2 3
100 -23 218 -58 117 -34 323 -94 457 -134 l244 -71 182 -535 c100 -293 189
-547 197 -564 25 -46 77 -91 138 -119 182 -85 390 45 407 253 4 52 -11 102
-207 685 -116 345 -217 640 -225 655 -19 36 -82 99 -118 118 -17 8 -227 72
-468 142 l-438 127 330 419 c182 231 339 429 349 439 19 19 24 18 317 -72 958
-294 957 -294 1000 -289 205 22 281 270 122 399 -38 31 -73 42 -1044 338 -220
67 -494 151 -610 187 -126 39 -236 66 -275 69 -42 4 -247 -14 -590 -50 -289
-31 -536 -56 -551 -56 -15 0 -158 76 -350 186 -429 247 -424 244 -495 244 -40
0 -73 -7 -101 -21z"/>
<path d="M9995 8569 c-1548 -220 -3571 -394 -5243 -451 -328 -11 -377 -14
-403 -30 -58 -35 -61 -108 -7 -153 l31 -26 214 7 215 7 -112 -223 c-100 -199
-112 -228 -107 -263 7 -50 48 -94 101 -108 81 -22 96 -9 388 319 l265 298 309
17 c375 21 919 61 1244 90 131 12 236 20 232 16 -25 -22 -165 -42 -338 -50
-626 -26 -983 -150 -1694 -587 -352 -217 -709 -469 -1225 -866 -150 -115 -315
-272 -385 -367 -45 -60 -56 -68 -136 -103 -229 -100 -451 -283 -571 -472 -272
-427 -403 -594 -664 -849 -222 -216 -396 -343 -614 -450 -308 -151 -620 -214
-845 -171 -76 14 -95 23 -180 80 -120 81 -153 90 -266 75 -88 -11 -158 -7
-181 13 -20 16 -25 5 -17 -36 20 -109 136 -186 332 -222 267 -48 860 11 1160
116 28 10 52 14 52 9 0 -22 -110 -119 -167 -147 -96 -49 -208 -71 -448 -88
-49 -3 -160 -19 -245 -35 -354 -66 -483 -63 -674 16 -19 8 -19 4 -13 -126 4
-74 13 -153 20 -174 24 -70 27 -71 343 -54 154 8 281 14 283 12 22 -16 -110
-51 -269 -72 -227 -29 -297 -56 -346 -129 -20 -30 -42 -108 -32 -117 8 -8 205
25 298 49 580 151 1218 624 1910 1416 198 226 289 339 588 726 122 159 188
220 398 369 187 133 299 229 403 345 210 232 535 503 896 746 148 99 850 540
993 623 150 87 356 166 551 212 131 31 216 46 472 84 338 51 455 77 649 145
314 109 385 113 685 34 235 -61 333 -82 425 -90 88 -8 136 -29 170 -76 13 -18
42 -52 63 -75 41 -45 52 -48 214 -72 217 -32 436 -163 660 -394 61 -63 119
-127 128 -141 10 -14 23 -26 30 -26 39 0 205 -58 303 -107 84 -41 128 -69 167
-109 56 -55 82 -115 70 -155 -6 -18 -11 -15 -55 24 -73 66 -141 92 -177 69
-16 -10 -33 -57 -33 -89 0 -14 16 -61 36 -105 19 -43 34 -86 32 -96 -4 -22
-47 -18 -92 9 -42 25 -59 18 -91 -36 -14 -24 -34 -50 -45 -58 -18 -13 -8 -15
95 -21 256 -15 392 -84 455 -230 32 -76 25 -101 -10 -36 -89 162 -163 113
-289 -190 -17 -42 -49 -111 -71 -154 -22 -43 -40 -80 -40 -82 0 -2 15 -4 34
-4 19 0 106 -14 193 -31 261 -53 406 -43 523 35 l35 23 67 -37 c138 -79 282
-124 443 -141 165 -16 253 -45 324 -105 29 -24 71 -90 71 -112 0 -4 -39 -6
-87 -4 -98 5 -180 -14 -223 -49 -18 -15 -20 -19 -7 -15 10 3 27 1 39 -5 17 -9
19 -17 13 -62 -14 -118 -38 -131 -115 -67 -61 51 -89 61 -134 49 -19 -5 -38
-14 -42 -20 -14 -23 10 -83 71 -176 36 -54 65 -104 65 -112 0 -16 -1 -16 210
29 278 59 417 43 460 -52 21 -45 26 -88 11 -88 -5 0 -29 9 -55 21 -32 14 -62
19 -99 17 -52 -3 -52 -3 -50 -36 0 -18 7 -40 15 -49 28 -34 103 -73 225 -114
211 -72 274 -123 272 -223 0 -28 -6 -67 -14 -86 l-12 -35 -8 40 c-21 117 -48
169 -100 191 -46 19 -78 18 -188 -7 -52 -12 -112 -19 -138 -16 l-47 4 5 -37
c7 -47 -23 -107 -82 -166 -32 -32 -49 -42 -62 -37 -16 6 -17 5 -3 -11 11 -14
14 -47 15 -135 0 -150 -19 -215 -79 -276 l-43 -43 55 -6 c159 -19 404 -167
448 -271 17 -43 18 -96 1 -119 -11 -15 -13 -12 -14 24 -2 51 -38 115 -79 140
-62 39 -162 17 -196 -42 -7 -13 -20 -43 -28 -68 -15 -44 -16 -45 -55 -44 -22
1 -67 13 -100 27 -74 33 -133 35 -169 6 -53 -42 -27 -90 119 -219 156 -137
214 -227 199 -308 l-7 -35 -14 26 c-7 15 -33 37 -56 49 -43 22 -198 68 -230
68 -17 0 -17 -1 0 -26 16 -25 16 -28 -7 -71 -13 -24 -39 -57 -59 -72 -34 -27
-93 -61 -106 -61 -3 0 8 24 25 54 79 139 16 196 -215 196 -51 0 -106 5 -122
11 l-28 11 50 13 c101 27 152 127 143 285 -6 106 -19 134 -57 127 -32 -7 -71
15 -71 39 0 10 -16 2 -47 -25 -56 -46 -87 -54 -123 -31 -12 7 -9 13 13 30 38
30 57 71 57 123 0 87 -59 197 -124 232 -25 14 -34 24 -30 35 3 8 8 33 10 55 6
54 -6 28 -45 -101 -44 -144 -86 -198 -127 -163 -13 10 -12 14 2 30 63 70 -55
284 -176 320 -60 18 -104 -7 -143 -81 -35 -67 -33 -98 18 -280 41 -146 45
-215 15 -253 -17 -22 -70 -43 -95 -38 -3 0 -8 45 -10 98 -6 121 -14 152 -47
176 -35 26 -76 13 -195 -64 -117 -75 -171 -87 -218 -47 l-28 25 48 0 c40 0 52
4 71 26 39 46 40 85 3 272 l-34 171 -26 -41 c-32 -51 -77 -84 -123 -92 -27 -4
-39 0 -67 25 l-33 29 87 91 c136 142 127 161 -142 277 -217 93 -216 93 -202
67 19 -35 13 -121 -11 -171 -29 -60 -114 -145 -161 -160 -32 -11 -41 -10 -62
3 -20 13 -25 25 -25 57 l0 41 55 -4 c60 -3 65 1 65 55 0 46 -32 93 -72 105
-18 6 -86 13 -150 16 -114 6 -172 20 -165 39 2 6 34 22 73 37 164 63 253 130
273 207 10 36 3 95 -13 122 -11 17 2 13 33 -10 15 -11 48 -23 72 -26 l43 -6
-24 31 c-31 39 -84 65 -112 56 -11 -3 -55 -28 -96 -55 -71 -47 -108 -58 -146
-43 -22 8 -5 37 55 96 44 42 49 52 49 90 0 50 -32 125 -55 135 -9 3 -41 -2
-70 -12 -46 -16 -56 -17 -70 -5 -18 15 -17 30 11 122 14 46 15 63 6 83 -19 41
-53 41 -211 1 -93 -23 -169 -36 -209 -36 -57 0 -67 3 -93 29 -41 42 -37 51 24
51 55 0 127 17 190 43 54 23 142 110 165 165 21 49 44 152 33 152 -8 0 -53
-72 -86 -140 -48 -96 -91 -124 -128 -82 -16 17 -14 22 28 71 53 62 57 90 19
165 -30 60 -49 83 -86 102 -37 19 -67 18 -113 -7 -33 -17 -51 -19 -100 -15
-66 7 -160 47 -175 76 -12 23 -8 26 55 35 111 16 185 56 185 99 0 12 -13 40
-29 64 -26 37 -28 47 -19 72 15 45 63 80 107 80 54 0 91 -29 133 -104 l17 -31
1 52 c0 29 -7 70 -16 92 -35 88 -117 76 -292 -41 -52 -36 -112 -62 -112 -49 0
5 21 17 46 27 45 17 46 19 40 52 -3 20 -18 51 -34 71 -42 53 -54 80 -48 107
11 41 -20 28 -46 -18 -34 -63 -59 -58 -64 11 -14 172 -150 243 -281 145 l-31
-24 24 -87 c31 -114 32 -198 2 -243 -13 -19 -28 -35 -34 -37 -6 -2 -18 38 -30
103 l-19 106 -55 17 c-30 10 -70 25 -87 35 l-33 17 0 87 c0 109 -21 200 -50
224 -12 10 -36 18 -52 18 l-30 0 35 -39 c62 -69 100 -210 74 -281 -9 -26 -20
-37 -44 -45 -25 -7 -33 -15 -33 -32 0 -15 -5 -21 -14 -17 -21 8 -56 -32 -56
-63 0 -34 34 -92 131 -224 148 -201 166 -252 138 -371 -10 -43 -47 -98 -66
-98 -27 1 -33 17 -18 53 21 51 19 120 -5 167 -37 73 -153 139 -252 143 -23 1
-46 6 -50 11 -3 5 -22 -22 -41 -61 -44 -86 -77 -126 -117 -143 -42 -17 -55 -3
-35 37 53 106 29 299 -48 388 -36 42 -75 49 -106 20 -33 -29 -72 5 -141 120
-48 80 -47 76 10 -54 53 -121 66 -182 49 -222 -12 -30 -43 -49 -79 -49 -16 0
-17 4 -8 43 28 122 -12 220 -110 265 -51 24 -68 27 -172 27 -96 0 -123 -4
-162 -22 -57 -26 -82 -62 -75 -106 6 -38 57 -127 72 -127 6 0 57 -23 113 -51
168 -82 235 -164 210 -256 -16 -59 -24 -59 -54 -2 -69 138 -127 199 -189 199
-33 0 -105 -43 -105 -64 0 -7 23 -63 51 -125 118 -264 141 -411 65 -411 -22 0
-24 4 -28 68 -2 49 -12 85 -35 135 -81 172 -289 378 -422 418 l-43 13 7 59 c4
39 2 63 -6 73 -13 16 -30 10 -24 -9 2 -7 6 -53 9 -104 l7 -92 -30 9 c-16 4
-44 5 -62 0 l-34 -7 30 -8 c17 -4 47 -11 67 -16 227 -57 337 -138 296 -218
-15 -28 -38 -39 -38 -18 0 8 -9 25 -21 38 -11 13 -18 19 -15 12 8 -14 -52 -33
-107 -33 -27 0 -45 -7 -62 -25 -32 -31 -33 -77 -4 -188 45 -174 -12 -333 -105
-297 -33 12 -34 39 -4 178 20 95 20 105 6 136 -22 46 -95 80 -170 81 -53 0
-61 -3 -94 -37 l-37 -36 -27 56 c-15 31 -34 63 -43 71 -22 17 -21 14 3 -37 30
-62 43 -138 37 -217 -9 -122 -54 -195 -121 -195 -65 0 -68 5 -35 70 67 131 26
230 -94 230 -134 -1 -218 -116 -204 -279 11 -124 103 -359 222 -561 111 -189
255 -290 415 -292 66 0 68 0 112 44 101 101 280 105 361 9 15 -18 27 -37 27
-42 0 -5 -34 -9 -75 -9 l-75 0 0 -31 c0 -95 83 -108 285 -44 43 14 90 25 104
25 59 0 213 -101 252 -164 26 -42 24 -72 -6 -101 -38 -39 -48 -33 -41 28 l7
52 -53 32 c-166 100 -233 84 -233 -56 0 -63 1 -65 29 -72 78 -21 162 -160 153
-252 -3 -41 -11 -56 -36 -79 -17 -15 -36 -28 -41 -28 -14 0 -37 50 -45 95 -13
79 -15 85 -36 85 -27 0 -78 -26 -112 -59 -44 -40 -60 -78 -52 -120 14 -75 66
-127 166 -165 62 -24 90 -15 309 90 201 96 274 119 332 104 26 -8 43 -20 54
-41 27 -53 16 -62 -41 -34 -61 30 -91 31 -105 6 -9 -18 -15 -111 -6 -111 2 0
23 7 47 16 125 44 306 58 377 29 73 -31 112 -91 112 -169 l-1 -41 -16 30 c-61
117 -177 145 -315 77 -66 -32 -125 -82 -96 -82 25 0 58 -44 66 -91 14 -80 -13
-160 -61 -178 -17 -6 -2 -14 77 -41 l98 -32 79 78 c74 73 82 79 120 78 26 -1
72 -17 132 -48 102 -51 145 -57 192 -26 79 52 315 -2 403 -93 39 -41 52 -80
39 -127 l-9 -35 -24 65 c-40 104 -88 140 -147 109 -12 -7 -54 -41 -94 -75 -50
-44 -81 -64 -99 -64 -26 0 -26 -1 19 -49 100 -106 165 -246 151 -325 -7 -44
-54 -99 -93 -109 -25 -6 -25 -6 -6 57 44 146 -20 225 -190 234 -119 6 -264
-33 -305 -83 -12 -15 -12 -18 3 -26 9 -6 29 -31 44 -56 35 -60 39 -146 9 -169
-32 -23 -44 -17 -70 34 -13 26 -35 61 -48 78 l-24 32 -32 -38 c-45 -54 -42
-82 11 -113 89 -52 226 -221 274 -337 45 -108 19 -180 -65 -180 -49 0 -52 8
-52 148 0 100 -1 104 -28 132 -32 31 -122 55 -166 44 -37 -9 -81 -63 -101
-126 -28 -83 -64 -161 -87 -185 -16 -17 -33 -23 -65 -23 -24 0 -43 4 -43 9 0
5 16 51 36 102 24 61 36 111 37 147 1 49 -2 57 -31 83 -51 46 -77 40 -168 -39
-43 -38 -89 -74 -101 -80 -25 -14 -89 -16 -97 -3 -3 4 14 43 39 86 52 92 69
163 60 246 -6 53 -9 59 -30 59 -21 0 -75 44 -75 61 0 15 54 10 79 -7 22 -16
23 -16 12 4 -12 23 -32 32 -67 32 -36 0 -55 -12 -147 -97 -86 -79 -154 -118
-187 -108 -27 9 -26 16 16 81 49 77 76 160 72 224 l-3 52 -108 44 c-128 53
-178 62 -230 41 -42 -18 -43 -24 -27 -125 18 -111 -16 -177 -102 -192 -24 -5
-45 -7 -47 -5 -1 2 4 14 13 27 9 12 16 36 16 53 0 89 -112 124 -189 59 -17
-14 -51 -59 -76 -101 -71 -117 -98 -132 -163 -91 l-36 22 41 11 c87 22 92 53
31 190 -43 94 -58 114 -58 75 0 -54 -58 -108 -101 -95 -28 9 -54 62 -38 81 6
8 17 14 24 14 21 0 65 40 65 60 0 9 -6 23 -14 30 -8 6 -16 21 -18 33 -4 27
-36 30 -51 5 -9 -13 -7 -22 7 -37 27 -30 12 -41 -56 -41 -44 0 -59 3 -55 13 3
6 12 29 21 49 9 20 12 39 8 42 -4 2 -34 -9 -65 -25 -32 -16 -64 -29 -71 -29
-30 0 -33 -353 -5 -454 24 -85 161 -182 333 -235 122 -38 143 -31 293 88 76
60 122 73 161 44 47 -35 90 -100 103 -157 10 -48 10 -58 -7 -92 -11 -21 -34
-49 -52 -61 l-32 -21 30 -7 c65 -14 92 -91 62 -179 l-19 -55 41 25 c155 96
256 95 346 -2 90 -98 122 -221 80 -304 -37 -72 -52 -47 -55 89 -2 92 -2 95
-33 122 -50 45 -121 59 -194 38 -55 -15 -68 -47 -68 -163 0 -100 -10 -126 -50
-126 -17 0 -18 4 -9 27 14 37 2 79 -28 103 -44 34 -93 21 -93 -25 0 -22 36
-81 94 -152 76 -93 71 -307 -9 -373 -24 -20 -27 -7 -14 60 9 49 9 73 -1 117
-23 103 -141 193 -252 193 -27 0 -38 -4 -38 -15 0 -28 -42 -126 -75 -175 -19
-28 -32 -50 -31 -50 2 0 22 7 45 15 32 11 43 12 46 2 2 -7 11 -37 20 -67 10
-30 33 -84 51 -119 49 -90 67 -175 61 -291 -5 -103 -25 -161 -61 -178 -22 -10
-59 -1 -70 17 -13 21 13 87 39 99 18 9 25 19 25 41 0 32 -50 192 -75 241 -47
90 -123 134 -187 107 -41 -18 -60 -39 -138 -155 -96 -142 -143 -169 -204 -121
l-27 22 39 23 c40 24 78 73 102 133 18 46 16 137 -5 189 -15 38 -65 92 -84 92
-4 0 -37 -18 -74 -40 -64 -39 -89 -46 -121 -34 -11 4 -7 13 21 37 52 46 65 86
74 228 4 69 10 143 14 165 5 31 -4 18 -44 -63 -54 -109 -86 -143 -134 -143
-29 0 -29 0 -23 42 4 24 18 62 32 85 13 23 24 50 24 60 0 9 -16 44 -36 76 -33
53 -35 60 -20 75 43 49 62 174 31 206 -20 19 -49 10 -39 -13 35 -82 -24 -160
-225 -301 -148 -103 -139 -94 -116 -120 54 -60 -24 -268 -118 -316 -38 -20
-43 -13 -24 33 55 139 14 249 -106 283 -69 19 -190 9 -252 -20 -46 -22 -48
-24 -23 -28 15 -2 39 -17 53 -33 52 -63 23 -226 -49 -270 -17 -10 -34 -19 -38
-19 -16 0 -7 56 12 85 23 35 26 78 7 94 -27 21 -71 23 -107 3 -28 -16 -34 -25
-32 -46 5 -45 39 -112 75 -148 l35 -35 -48 -100 c-50 -103 -120 -192 -172
-219 -31 -16 -100 -13 -181 7 -43 11 -69 44 -60 77 6 23 18 29 28 12 11 -17
117 -11 161 9 83 38 121 129 92 216 l-13 40 -160 0 c-148 0 -163 2 -203 23
-36 19 -82 71 -82 93 0 4 20 4 44 2 83 -10 222 36 253 83 14 21 13 30 -7 95
-17 52 -21 86 -17 124 l5 53 -56 -20 c-92 -32 -169 -11 -197 55 -17 41 -13 44
21 18 41 -32 108 -29 167 9 101 64 209 207 296 391 75 159 75 165 -5 88 -169
-163 -274 -219 -274 -147 0 20 5 23 37 24 28 0 43 8 69 37 63 68 69 165 13
211 -27 23 -39 26 -111 26 -91 0 -139 17 -157 56 -17 37 -15 39 37 39 122 0
185 142 136 306 -17 53 -17 54 -28 27 -36 -84 -139 -124 -190 -72 -9 8 -16 22
-16 29 0 11 6 12 31 3 47 -16 79 2 79 47 0 24 -5 35 -15 35 -8 0 -12 6 -9 14
7 19 -34 46 -69 46 -41 0 -78 -23 -166 -100 -99 -87 -137 -110 -183 -110 -28
0 -42 7 -61 30 -57 67 -44 94 40 85 44 -4 56 -2 73 15 23 23 25 47 9 120 -8
38 -14 49 -22 41 -14 -14 -67 -14 -104 0 -66 25 -104 93 -70 128 10 11 6 12
-20 6 -43 -9 -98 10 -123 42 -14 19 -20 41 -20 79 0 47 3 54 19 54 28 0 51 10
51 23 0 6 -3 8 -6 4 -5 -5 -64 10 -106 28 -15 6 -18 2 -18 -29 0 -102 -118
-243 -291 -347 l-56 -34 91 -4 c160 -6 181 -6 206 1 25 7 26 6 22 -27 -3 -24
4 -50 22 -85 27 -51 33 -94 16 -120 -7 -11 -21 -3 -69 43 -58 56 -62 58 -108
55 l-48 -3 -3 -41 c-4 -52 17 -78 102 -128 36 -21 69 -43 74 -50 5 -6 14 -44
20 -85 16 -98 44 -159 74 -165 13 -2 75 -11 139 -19 183 -24 301 -92 354 -204
41 -84 35 -190 -12 -237 -50 -50 -61 -34 -72 97 -7 77 -11 91 -36 117 -32 34
-85 48 -120 32 -12 -6 -40 -38 -61 -72 -77 -122 -93 -140 -120 -140 -20 0 -25
4 -20 17 4 9 9 43 13 75 5 54 4 58 -15 58 -26 0 -76 -58 -92 -106 -21 -61 -8
-252 23 -348 l26 -80 -44 -61 c-43 -61 -107 -125 -125 -125 -16 0 -40 44 -40
72 0 22 5 28 21 28 35 0 76 51 84 103 13 83 -48 287 -91 304 -9 3 -36 -4 -60
-16 -74 -35 -78 -32 -70 50 4 38 14 91 21 117 11 35 11 49 3 60 -19 22 -55 32
-80 22 -19 -7 -20 -9 -5 -9 10 -1 32 -14 48 -31 28 -27 29 -31 15 -52 -8 -13
-24 -57 -37 -98 -38 -130 -60 -155 -93 -108 -24 34 -19 56 14 73 34 18 39 48
15 95 -31 59 -129 78 -210 41 -63 -28 -70 -42 -51 -98 23 -66 21 -160 -4 -201
-29 -48 -49 -43 -39 10 17 90 -10 155 -132 315 -45 59 -93 130 -105 158 -25
53 -31 125 -14 169 8 22 7 26 -10 26 -23 0 -40 -28 -40 -65 0 -29 -16 -65 -29
-65 -5 0 -14 20 -21 45 -13 46 -30 69 -30 40 0 -36 32 -87 105 -166 42 -46 84
-98 92 -115 18 -37 12 -87 -15 -121 -17 -22 -17 -21 -17 45 0 58 -4 75 -27
109 -37 56 -86 85 -139 81 -55 -4 -72 -27 -106 -146 -26 -92 -27 -93 -52 -86
-14 5 -46 8 -71 8 l-45 1 -8 -130 c-10 -157 -16 -183 -48 -207 -36 -27 -57
-15 -65 40 -12 87 -36 187 -55 224 -35 68 -88 84 -170 51 l-41 -16 6 -56 c3
-31 9 -113 12 -182 6 -120 6 -127 -15 -148 -20 -20 -23 -20 -51 -6 -27 14 -30
20 -31 68 0 44 -2 49 -11 30 -11 -23 -55 -43 -95 -43 -26 0 -78 -45 -68 -60 3
-5 22 -3 47 6 77 27 99 2 108 -121 l5 -80 95 -48 c184 -92 257 -87 444 28 215
132 317 166 397 132 60 -25 111 -115 121 -212 l3 -30 15 29 c36 70 146 52 236
-38 75 -76 90 -148 39 -196 l-22 -21 -6 48 c-4 35 -12 53 -32 70 -84 73 -213
-48 -218 -204 l-2 -57 55 -33 c98 -59 92 -59 465 -52 185 4 249 -6 321 -47 53
-30 71 -69 54 -118 -16 -49 -27 -52 -34 -12 -4 18 -20 52 -36 75 -27 37 -34
41 -73 41 -64 -1 -73 -13 -79 -103 -3 -43 -10 -83 -16 -89 -17 -17 -45 0 -92
58 -25 30 -54 60 -65 66 -20 11 -20 11 -1 -11 18 -20 19 -24 4 -49 -8 -15 -18
-65 -22 -111 -4 -46 -11 -92 -17 -103 -6 -11 -9 -22 -6 -24 2 -2 1649 -3 3661
-2 l3657 3 -63 45 c-88 63 -240 216 -338 340 -448 568 -771 1371 -806 2005 -8
148 7 242 70 441 65 205 76 270 76 443 0 279 54 434 207 601 84 91 120 106
258 112 129 5 172 20 337 115 113 65 202 102 215 90 4 -5 0 -30 -10 -56 -32
-92 -22 -145 44 -216 31 -34 55 -49 96 -61 30 -9 65 -13 79 -10 22 6 24 3 24
-25 0 -37 -34 -72 -108 -111 -67 -36 -74 -61 -39 -134 31 -63 88 -129 130
-151 49 -25 117 -12 219 41 48 25 99 46 112 46 28 0 50 -32 86 -123 30 -77 71
-111 123 -104 49 7 123 57 159 107 32 43 58 134 58 198 0 43 0 43 22 28 35
-25 83 -19 171 19 44 19 84 35 88 35 5 0 2 -17 -5 -38 -27 -76 -29 -118 -7
-167 17 -38 29 -50 73 -70 29 -13 84 -29 123 -35 38 -6 71 -13 73 -15 12 -12
-18 -52 -83 -113 -127 -118 -140 -168 -66 -235 36 -32 43 -34 128 -39 137 -8
153 -20 168 -131 4 -28 16 -58 30 -75 22 -26 28 -27 107 -26 104 1 187 34 247
100 l40 42 26 -44 c119 -203 347 -49 333 225 -4 86 -24 137 -74 185 -30 29
-32 35 -24 71 11 58 18 71 46 84 20 9 37 7 86 -10 34 -11 79 -29 100 -40 21
-11 58 -22 81 -25 37 -5 47 -3 65 16 29 32 37 98 24 209 -18 157 -61 221 -199
297 -116 63 -141 83 -168 137 -59 120 -9 343 91 407 50 31 114 44 159 32 50
-14 64 -52 67 -186 3 -110 5 -119 27 -137 30 -24 86 -24 131 0 24 12 44 36 65
76 29 56 30 64 29 179 -2 187 -46 299 -165 421 -38 39 -72 88 -97 140 -44 90
-100 149 -183 191 -90 45 -129 74 -142 102 -7 17 -11 89 -12 194 l0 167 -29
30 c-44 46 -117 68 -281 85 -161 17 -203 31 -385 121 -140 70 -192 87 -272 87
-60 0 -79 -6 -180 -52 -85 -40 -127 -54 -175 -58 -62 -5 -63 -4 -102 34 -46
46 -70 115 -78 219 -4 59 -2 74 14 94 l19 24 78 -39 c100 -49 187 -59 206 -24
29 55 -23 203 -95 269 -24 22 -62 52 -86 66 -76 47 -128 95 -155 140 -41 71
-34 84 71 122 110 39 140 68 132 125 -14 103 -154 242 -379 377 -104 62 -187
121 -245 173 -48 44 -115 98 -147 120 -84 58 -414 216 -596 286 -206 79 -272
110 -366 170 -107 68 -213 117 -309 142 -94 23 -285 50 -364 50 -30 0 -52 2
-50 5 3 2 122 18 264 35 413 48 847 105 1460 190 894 124 815 111 838 141 20
28 17 57 -9 84 -21 21 -73 18 -309 -16z"/>
<path d="M6772 6606 c3 -4 39 -14 79 -23 127 -26 186 -69 196 -143 l6 -42 -39
21 c-48 26 -85 27 -115 3 l-22 -19 64 -6 c53 -5 68 -10 87 -33 30 -34 42 -20
42 51 0 80 -44 130 -147 166 -57 21 -163 38 -151 25z"/>
<path d="M9538 6559 c-26 -15 -25 -79 1 -79 13 0 21 9 26 30 4 16 11 32 16 35
31 20 -11 33 -43 14z"/>
<path d="M5721 6096 c2 -2 15 -9 29 -15 24 -11 24 -11 6 3 -16 13 -49 24 -35
12z"/>
<path d="M6867 5983 c-4 -3 -7 -16 -6 -27 0 -19 1 -19 10 3 10 24 8 36 -4 24z"/>
<path d="M5158 5854 c-4 -4 12 -19 35 -35 23 -15 71 -51 107 -78 77 -60 112
-69 166 -45 21 9 57 20 79 24 l40 7 -85 41 c-118 56 -321 108 -342 86z"/>
<path d="M11230 4470 c-10 -6 -8 -15 6 -39 19 -32 58 -51 105 -51 17 0 34 -8
42 -20 14 -20 14 -20 31 5 21 32 16 39 -44 70 -57 29 -123 45 -140 35z"/>
<path d="M10801 3659 c-18 -6 -31 -13 -28 -16 8 -8 67 7 67 18 0 5 -1 9 -2 8
-2 0 -18 -5 -37 -10z"/>
<path d="M5583 2880 c-36 -21 -53 -48 -53 -81 0 -21 1 -22 13 -5 7 10 40 32
72 49 32 18 61 38 63 45 6 19 -59 15 -95 -8z"/>
<path d="M6678 2518 c-23 -18 -41 -88 -24 -94 12 -5 146 43 146 52 0 8 -76 54
-90 54 -9 0 -23 -6 -32 -12z"/>
<path d="M5454 1564 c-18 -14 -18 -15 4 -4 12 6 22 13 22 15 0 8 -5 6 -26 -11z"/>
<path d="M275 1469 c-16 -6 -17 -8 -3 -8 22 -1 76 -47 100 -86 l20 -30 -6 35
c-12 67 -63 108 -111 89z"/>
<path d="M204 1455 c-18 -13 -18 -14 4 -8 12 3 25 9 28 14 8 14 -10 11 -32 -6z"/>
</g>
</svg>
